<?xml version="1.0" standalone="no"?>
<!DOCTYPE svg PUBLIC "-//W3C//DTD SVG 20010904//EN"
 "http://www.w3.org/TR/2001/REC-SVG-20010904/DTD/svg10.dtd">
<svg version="1.0" xmlns="http://www.w3.org/2000/svg"
 width="2000.000000pt" height="528.000000pt" viewBox="0 0 2000.000000 528.000000"
 preserveAspectRatio="xMidYMid meet">

<g transform="translate(0.000000,528.000000) scale(0.100000,-0.100000)"
fill="#000000" stroke="none">
<path d="M10322 4670 c-276 -39 -526 -226 -641 -482 -35 -77 -85 -261 -105
-387 -44 -274 -45 -665 -2 -866 41 -195 75 -263 208 -422 123 -147 283 -216
508 -217 69 0 121 7 187 24 84 22 98 23 144 11 62 -16 327 -6 376 14 36 15 65
66 84 150 7 33 11 178 11 425 -1 354 -5 469 -19 515 -11 38 -61 91 -110 115
-42 21 -65 25 -178 28 -72 2 -186 -1 -253 -7 -157 -14 -206 -36 -242 -108 -23
-45 -25 -57 -23 -176 4 -194 29 -228 175 -231 81 -2 98 -15 98 -70 -2 -104
-61 -149 -199 -150 -71 -1 -94 3 -131 22 -111 57 -161 215 -155 487 10 413 70
649 191 740 57 44 141 68 215 63 82 -6 97 -23 115 -129 8 -46 19 -97 26 -112
17 -44 83 -94 131 -101 56 -8 241 17 270 37 39 25 67 98 67 169 0 81 -25 259
-44 321 -24 74 -66 146 -111 184 -50 43 -200 117 -280 138 -74 19 -229 27
-313 15z m358 -161 c199 -87 221 -119 248 -360 10 -90 17 -170 14 -177 -7 -20
-48 -32 -132 -39 l-77 -6 -16 42 c-10 23 -17 51 -17 64 0 33 -26 113 -52 158
-57 101 -295 110 -442 16 -67 -43 -150 -146 -181 -226 -41 -105 -74 -251 -80
-347 -2 -49 -9 -129 -15 -179 -5 -49 -10 -126 -10 -169 0 -107 35 -287 70
-356 41 -81 114 -157 179 -188 51 -25 66 -27 176 -26 139 0 185 15 248 80 65
67 94 224 55 299 -33 62 -61 78 -145 83 -114 7 -116 8 -109 100 3 42 5 91 6
109 0 28 4 33 38 42 20 6 134 11 253 11 199 0 219 -2 240 -19 l24 -19 3 -444
c1 -243 0 -453 -3 -466 -8 -34 -45 -42 -179 -43 -98 0 -123 3 -132 15 -16 23
-48 20 -181 -16 -117 -31 -118 -32 -238 -21 -203 19 -284 65 -411 236 -102
138 -134 289 -134 648 0 328 12 460 61 653 48 194 91 277 194 381 145 146 324
209 575 200 82 -2 106 -7 170 -36z"/>
<path d="M14545 4670 c-144 -11 -196 -34 -232 -104 -28 -54 -34 -90 -39 -236
-2 -80 -6 -168 -9 -195 -3 -28 -5 -294 -5 -592 0 -297 -4 -543 -7 -547 -8 -8
-5 -455 4 -506 13 -79 77 -137 176 -160 27 -6 98 -11 157 -11 122 0 153 10
193 63 47 64 49 82 58 506 4 222 10 406 13 409 3 3 11 -7 17 -23 48 -115 152
-316 178 -342 53 -53 135 -45 180 18 14 20 62 110 106 199 64 129 81 158 86
139 3 -13 4 -143 1 -289 -7 -429 14 -575 94 -650 24 -22 34 -24 148 -27 159
-5 220 11 271 70 19 23 38 57 42 77 14 63 10 1844 -4 1943 -14 100 -37 152
-87 195 -52 47 -97 58 -226 58 -101 0 -121 -3 -163 -24 -61 -30 -83 -64 -147
-226 -54 -136 -207 -455 -219 -455 -10 0 -133 249 -172 345 -36 92 -56 139
-106 247 -31 68 -41 80 -77 97 -53 25 -108 30 -231 21z m178 -132 c17 -14 27
-35 112 -243 75 -184 199 -436 226 -461 37 -33 81 -37 121 -11 26 17 51 58
118 192 48 94 114 240 149 325 35 85 74 166 87 179 21 22 31 24 116 24 104 1
163 -18 177 -56 27 -67 30 -248 20 -1202 -3 -280 -2 -532 3 -560 15 -89 14
-210 -1 -238 -18 -34 -29 -38 -148 -44 l-101 -6 -22 43 c-21 41 -21 50 -20
492 0 389 -2 458 -15 499 -29 86 -97 115 -147 62 -15 -16 -79 -135 -143 -266
-64 -130 -121 -235 -126 -232 -5 4 -64 116 -130 250 -67 135 -128 250 -136
257 -37 30 -124 2 -143 -47 -5 -13 -10 -245 -12 -517 -2 -393 -6 -498 -17
-517 -13 -24 -14 -24 -125 -17 -187 11 -202 29 -192 216 20 362 25 590 20 850
-7 381 7 985 24 1002 28 28 274 49 305 26z"/>
<path d="M4575 4660 c-196 -5 -247 -9 -280 -24 -115 -50 -143 -134 -156 -471
-18 -469 -6 -1380 21 -1585 19 -145 63 -204 170 -230 74 -18 601 -20 685 -3
86 18 267 111 351 181 65 55 156 165 195 237 64 117 114 281 150 500 18 110
21 154 16 290 -3 88 -12 203 -21 255 -8 52 -20 128 -26 168 -12 86 -43 179
-78 242 -43 75 -139 203 -173 230 -100 79 -211 152 -258 170 -49 19 -285 52
-336 48 -11 -1 -128 -4 -260 -8z m457 -135 c75 -8 105 -21 208 -90 107 -72
140 -103 200 -188 81 -114 105 -186 130 -391 32 -260 32 -493 1 -656 -24 -128
-87 -324 -124 -389 -70 -121 -185 -227 -314 -289 -111 -53 -141 -57 -474 -57
-271 0 -308 2 -332 17 -29 19 -35 47 -43 183 -8 150 -11 1569 -4 1681 9 121
26 170 63 179 50 12 581 12 689 0z"/>
<path d="M4745 4146 c-53 -15 -86 -46 -112 -106 -21 -48 -30 -257 -26 -635 5
-451 25 -541 127 -580 41 -16 49 -16 116 -1 220 50 308 132 370 346 35 121 40
164 30 293 -14 175 -60 367 -118 482 -13 27 -48 72 -78 101 -93 91 -206 128
-309 100z m196 -166 c67 -46 76 -61 112 -180 59 -195 59 -194 61 -378 1 -161
-1 -183 -22 -246 -45 -133 -100 -184 -237 -220 -63 -16 -94 -9 -96 22 0 9 -2
244 -4 521 -3 376 -1 509 8 519 21 26 111 7 178 -38z"/>
<path d="M16492 4649 c-270 -23 -299 -79 -311 -594 -21 -839 -26 -1120 -26
-1325 0 -214 1 -228 24 -282 27 -67 73 -112 133 -130 54 -16 204 -16 733 3
279 10 417 19 432 27 81 45 112 178 77 321 -22 87 -47 134 -86 164 -61 46
-101 51 -400 48 l-278 -2 0 23 c0 13 -2 110 -4 216 -4 150 -2 195 9 205 8 8
66 18 156 26 261 23 307 40 351 125 45 88 44 201 -4 302 -33 70 -55 77 -288
82 -238 5 -235 4 -227 106 3 37 9 71 12 74 3 4 146 11 318 18 172 6 324 16
338 22 40 16 77 67 84 115 4 24 2 107 -3 184 -13 191 -33 224 -159 259 -47 13
-125 17 -413 19 -195 2 -406 -1 -468 -6z m818 -132 l85 -12 12 -75 c18 -114
17 -226 -3 -234 -8 -3 -120 -8 -247 -12 -271 -6 -387 -17 -420 -38 -52 -35
-96 -164 -83 -249 4 -25 20 -63 36 -86 49 -67 68 -72 294 -80 l200 -6 13 -25
c15 -29 17 -128 4 -163 -13 -34 -49 -43 -211 -56 -227 -19 -244 -21 -267 -36
-53 -35 -73 -136 -73 -373 0 -187 12 -241 65 -292 l35 -34 102 0 c57 -1 193 1
303 3 271 6 275 3 278 -175 l2 -109 -350 -12 c-192 -6 -426 -14 -520 -18 -199
-9 -231 -3 -260 46 -23 39 -22 -34 -5 824 18 824 27 1107 40 1147 14 50 37 60
145 68 155 12 733 9 825 -3z"/>
<path d="M3127 4619 c-46 -5 -100 -18 -132 -33 -73 -33 -103 -87 -145 -259
-18 -73 -47 -181 -65 -242 -32 -107 -62 -209 -185 -630 -31 -110 -74 -274 -94
-365 -20 -91 -47 -203 -60 -250 -14 -47 -42 -144 -62 -217 l-38 -132 19 -41
c26 -58 89 -118 132 -126 66 -13 324 6 370 26 47 21 81 66 109 148 10 30 26
58 35 63 21 11 269 32 328 27 44 -3 45 -4 56 -49 17 -66 74 -177 103 -200 46
-35 97 -42 229 -30 147 13 209 34 240 80 47 69 47 95 7 273 -20 90 -44 204
-54 253 -33 166 -182 727 -275 1035 -24 80 -64 226 -90 325 -51 201 -67 247
-104 289 -57 63 -129 76 -324 55z m239 -137 c7 -9 18 -37 25 -62 6 -25 17 -65
24 -90 8 -25 21 -79 30 -120 10 -41 42 -160 72 -265 30 -104 74 -262 98 -350
24 -88 53 -196 65 -240 58 -212 69 -258 125 -523 19 -90 42 -187 50 -215 18
-62 20 -141 2 -155 -21 -18 -171 -37 -265 -33 -25 1 -32 14 -83 150 -43 115
-57 127 -155 135 -101 9 -315 -8 -376 -29 -56 -20 -76 -44 -119 -147 -17 -40
-34 -76 -38 -80 -12 -13 -311 -12 -324 1 -21 21 -12 92 25 206 40 121 73 247
113 430 26 121 62 251 179 650 35 121 75 258 89 305 13 47 37 135 51 195 45
181 56 214 78 226 30 16 216 38 272 33 30 -3 55 -12 62 -22z"/>
<path d="M3152 3730 c-28 -12 -56 -75 -76 -172 -8 -40 -27 -126 -41 -190 -37
-174 -32 -230 23 -275 18 -15 158 -17 236 -4 37 6 56 16 73 37 51 65 43 119
-69 459 -46 142 -77 172 -146 145z m87 -380 c17 -63 31 -121 31 -127 0 -9 -21
-13 -71 -13 -82 0 -77 -15 -40 125 11 44 21 94 21 111 0 35 10 51 21 32 4 -8
21 -65 38 -128z"/>
<path d="M11335 4618 c-21 -5 -50 -19 -63 -31 -54 -50 -102 -189 -102 -296 0
-68 30 -133 73 -160 39 -23 129 -41 213 -41 l62 0 7 -95 c4 -52 4 -137 0 -187
-14 -212 -22 -675 -16 -998 6 -326 8 -347 28 -385 30 -56 59 -84 110 -106 53
-23 127 -24 201 -5 75 20 100 40 128 100 41 89 54 191 54 416 0 113 5 313 10
445 6 132 12 367 14 523 1 156 7 287 12 291 5 5 54 12 109 15 217 14 254 51
256 256 0 113 -8 153 -40 199 -40 56 -69 59 -566 64 -247 2 -468 0 -490 -5z
m575 -127 c292 1 350 1 378 -6 21 -5 22 -9 22 -119 0 -134 8 -125 -130 -132
-102 -6 -187 -20 -207 -37 -7 -5 -20 -32 -29 -61 -18 -54 -23 -190 -43 -1131
-11 -503 -16 -546 -68 -566 -13 -5 -53 -9 -87 -9 -108 0 -101 -37 -100 519 0
262 2 636 5 831 4 328 3 358 -14 383 -34 53 -61 62 -197 66 -71 2 -131 8 -139
14 -9 8 -11 25 -6 62 8 67 34 167 47 183 8 9 49 11 177 7 91 -3 267 -5 391 -4z"/>
<path d="M13245 4616 c-172 -24 -209 -63 -265 -287 -17 -68 -47 -178 -66 -244
-209 -707 -247 -843 -289 -1042 -14 -68 -48 -198 -76 -290 -70 -234 -75 -263
-50 -310 24 -49 88 -112 120 -120 36 -9 309 5 356 18 53 15 95 62 124 140 14
35 30 70 36 77 12 13 173 27 313 27 l64 0 23 -72 c24 -77 62 -148 91 -174 35
-30 121 -51 162 -39 20 5 56 10 79 10 63 0 185 28 206 48 24 21 52 77 61 119
15 65 -189 897 -367 1503 -26 85 -64 227 -87 315 -52 206 -65 238 -111 279
-63 58 -138 67 -324 42z m247 -134 c11 -11 39 -100 72 -232 30 -118 75 -282
99 -365 71 -234 237 -861 251 -950 8 -46 28 -136 62 -280 27 -111 30 -177 12
-193 -18 -14 -143 -32 -222 -32 l-65 0 -25 53 c-13 29 -28 66 -32 82 -12 51
-53 124 -76 137 -17 10 -71 12 -201 11 -284 -3 -322 -22 -388 -200 -12 -32
-28 -54 -40 -58 -10 -4 -82 -7 -159 -8 -116 -2 -142 1 -150 13 -25 38 -22 66
17 189 60 185 78 252 108 396 15 72 33 153 41 180 8 28 28 100 45 160 17 61
35 124 40 140 5 17 20 68 33 115 13 47 47 163 76 259 28 96 73 260 101 365 27
105 54 195 60 201 15 15 228 45 279 39 25 -3 53 -13 62 -22z"/>
<path d="M13290 3733 c-41 -15 -58 -48 -80 -153 -47 -224 -70 -349 -70 -382 0
-44 21 -88 53 -107 31 -20 205 -13 267 10 33 13 70 68 70 106 0 40 -31 158
-87 333 -57 178 -88 217 -153 193z m79 -378 c17 -69 31 -130 31 -135 0 -6 -32
-10 -71 -10 -69 0 -71 1 -65 23 4 12 16 63 26 112 11 50 22 100 25 113 10 44
22 20 54 -103z"/>
<path d="M8120 4433 c-157 -57 -252 -166 -305 -348 -30 -105 -32 -176 -6 -278
25 -96 43 -131 95 -185 74 -78 175 -111 284 -91 207 39 348 217 378 478 12
110 -53 288 -132 361 -71 65 -224 96 -314 63z"/>
<path d="M7207 4429 c-138 -33 -243 -153 -267 -306 -33 -214 85 -470 255 -554
155 -76 316 -34 410 107 38 56 85 213 85 281 0 60 -31 186 -62 250 -59 124
-143 192 -264 218 -77 16 -102 17 -157 4z"/>
<path d="M6478 3829 c-21 -5 -65 -22 -97 -39 -164 -82 -208 -298 -104 -518 33
-70 139 -180 208 -214 117 -59 243 -75 337 -42 67 24 179 130 210 201 32 72
36 181 8 262 -38 115 -109 211 -195 266 -70 44 -127 65 -225 81 -95 15 -91 15
-142 3z"/>
<path d="M8822 3820 c-112 -17 -254 -113 -320 -218 -77 -120 -95 -314 -40
-432 56 -121 147 -186 274 -197 140 -11 256 32 366 135 123 116 172 222 173
372 0 89 -2 100 -34 163 -41 81 -90 128 -162 155 -64 23 -182 33 -257 22z"/>
<path d="M7640 3380 c-250 -25 -455 -168 -559 -391 -47 -99 -61 -174 -61 -324
0 -211 38 -336 129 -426 94 -93 169 -97 370 -22 184 68 259 69 416 8 228 -88
291 -86 396 12 84 79 124 170 144 327 34 269 -76 536 -281 682 -158 113 -335
156 -554 134z"/>
<path d="M13605 1782 c-35 -22 -69 -60 -78 -84 -7 -20 40 -72 72 -81 30 -8 99
31 127 72 29 43 29 49 4 79 -27 33 -86 39 -125 14z"/>
<path d="M10606 1765 c-28 -15 -61 -50 -83 -89 -9 -17 -8 -26 4 -48 37 -61
156 -28 199 54 13 24 13 32 0 57 -23 44 -67 53 -120 26z"/>
<path d="M7734 1741 c-51 -23 -90 -81 -75 -109 14 -27 56 -52 86 -52 51 0 125
69 125 117 0 27 -41 63 -71 63 -13 0 -42 -9 -65 -19z"/>
<path d="M10822 1683 c-13 -2 -43 -24 -68 -47 -33 -32 -44 -50 -44 -73 0 -29
4 -33 48 -47 66 -22 117 -9 160 40 36 42 40 69 14 101 -18 22 -69 35 -110 26z"/>
<path d="M13792 1673 c-37 -18 -92 -77 -92 -98 0 -45 86 -75 159 -55 78 21
120 118 66 154 -31 20 -91 20 -133 -1z"/>
<path d="M7908 1632 c-30 -19 -61 -57 -72 -86 -4 -13 1 -27 15 -43 19 -19 32
-23 86 -23 58 0 66 3 103 36 48 43 55 92 18 118 -31 22 -116 21 -150 -2z"/>
<path d="M13350 1630 c-26 -26 -25 -48 5 -120 29 -68 31 -105 10 -173 -19 -64
-8 -94 39 -102 50 -10 98 17 178 99 63 65 68 73 68 113 0 41 -22 96 -52 134
-18 21 -151 69 -194 69 -21 0 -42 -8 -54 -20z"/>
<path d="M10374 1610 c-11 -4 -26 -22 -33 -39 -12 -27 -10 -37 19 -100 33 -71
36 -105 15 -191 -9 -38 27 -80 69 -80 65 0 179 103 207 187 12 38 1 96 -27
140 -18 29 -83 62 -154 79 -64 15 -68 16 -96 4z"/>
<path d="M7476 1588 c-22 -30 -20 -49 9 -118 29 -69 31 -96 10 -165 -20 -63
-13 -89 24 -105 48 -19 98 4 181 84 79 76 89 102 70 170 -19 68 -55 103 -133
131 -87 32 -140 33 -161 3z"/>
<path d="M13798 1482 c-27 -12 -78 -61 -78 -76 0 -7 18 -30 40 -50 36 -32 46
-36 96 -36 30 0 68 7 84 15 54 28 50 99 -7 129 -34 17 -112 28 -135 18z"/>
<path d="M10773 1452 c-40 -35 -42 -62 -5 -104 27 -29 33 -31 100 -32 61 -1
74 2 96 23 18 17 26 35 26 57 0 47 -43 75 -123 81 -57 3 -65 1 -94 -25z"/>
<path d="M7935 1443 c-11 -3 -32 -14 -47 -25 -39 -27 -37 -62 8 -104 32 -31
41 -34 96 -34 54 0 63 3 89 31 34 37 36 57 9 92 -29 37 -97 54 -155 40z"/>
<path d="M13623 1325 c-36 -15 -52 -60 -33 -95 14 -26 83 -59 123 -60 38 0 84
25 92 51 8 24 -16 62 -56 90 -34 24 -88 31 -126 14z"/>
<path d="M10631 1294 c-63 -53 -29 -111 78 -136 50 -11 52 -11 89 19 41 34 43
54 9 92 -50 54 -128 66 -176 25z"/>
<path d="M7754 1286 c-114 -51 21 -194 137 -146 43 18 51 46 27 93 -27 54
-106 79 -164 53z"/>
<path d="M9154 1250 c-23 -11 -51 -32 -64 -45 l-22 -24 22 -28 c26 -34 57 -52
88 -53 40 0 102 38 119 76 17 34 16 35 -8 60 -35 35 -84 40 -135 14z"/>
<path d="M8895 1168 c-26 -21 -27 -24 -20 -82 12 -92 8 -131 -20 -190 -27 -58
-30 -78 -15 -107 27 -49 190 -5 274 75 85 80 45 210 -87 284 -75 42 -99 46
-132 20z"/>
<path d="M12190 1163 c-28 -11 -90 -65 -90 -79 0 -25 63 -84 91 -84 61 0 146
72 133 114 -12 40 -35 56 -78 55 -23 0 -48 -3 -56 -6z"/>
<path d="M6355 1133 c-39 -20 -75 -53 -75 -68 0 -7 16 -28 35 -48 27 -28 44
-37 68 -37 39 1 107 46 125 84 13 26 12 30 -14 57 -22 23 -36 29 -68 29 -23
-1 -54 -8 -71 -17z"/>
<path d="M9305 1103 c-131 -69 -83 -152 84 -144 25 1 43 11 68 37 38 41 37 64
-3 102 -30 27 -103 30 -149 5z"/>
<path d="M11915 1068 c-29 -23 -29 -18 -9 -158 4 -26 -3 -53 -26 -104 -36 -78
-34 -103 8 -128 36 -21 75 -12 168 39 81 44 110 79 119 142 10 76 -23 129
-120 188 -69 42 -106 48 -140 21z"/>
<path d="M6100 1062 c-26 -21 -27 -32 -19 -158 2 -40 -3 -62 -24 -102 -32 -62
-36 -117 -8 -132 33 -17 103 -10 151 15 25 13 59 31 75 39 39 18 59 42 74 85
16 49 14 70 -14 126 -20 38 -41 61 -89 93 -78 52 -113 61 -146 34z"/>
<path d="M12348 1018 c-72 -19 -108 -77 -75 -122 7 -10 36 -24 63 -31 40 -10
56 -10 89 2 50 17 85 50 85 79 0 22 -51 74 -73 74 -7 0 -21 2 -32 4 -11 3 -37
0 -57 -6z"/>
<path d="M6529 993 c-15 -2 -44 -19 -65 -37 -31 -27 -36 -36 -31 -58 10 -39
85 -72 143 -64 113 15 151 107 61 149 -34 17 -54 18 -108 10z"/>
<path d="M9243 904 c-38 -19 -41 -36 -13 -81 25 -41 56 -61 113 -72 38 -7 52
-5 76 10 46 28 55 53 34 90 -38 64 -137 89 -210 53z"/>
<path d="M12306 818 c-40 -9 -76 -33 -76 -51 0 -18 52 -78 84 -98 68 -42 166
-11 166 52 0 66 -89 115 -174 97z"/>
<path d="M9100 813 c-27 -10 -60 -46 -60 -66 0 -72 136 -135 198 -91 72 50
-50 189 -138 157z"/>
<path d="M6480 800 c-72 -19 -86 -53 -47 -111 22 -33 54 -49 124 -62 38 -7 96
27 101 60 9 64 -101 133 -178 113z"/>
<path d="M12084 694 c-44 -43 -16 -100 64 -135 56 -24 77 -24 114 2 24 18 28
26 23 47 -24 95 -142 146 -201 86z"/>
<path d="M6268 684 c-15 -8 -31 -26 -34 -39 -17 -68 110 -147 185 -115 38 15
44 44 20 92 -35 69 -110 96 -171 62z"/>
</g>
</svg>
